<?xml version="1.0" standalone="no"?>
<!DOCTYPE svg PUBLIC "-//W3C//DTD SVG 20010904//EN"
 "http://www.w3.org/TR/2001/REC-SVG-20010904/DTD/svg10.dtd">
<svg version="1.0" xmlns="http://www.w3.org/2000/svg"
 width="360.000000pt" height="360.000000pt" viewBox="0 0 360.000000 360.000000"
 preserveAspectRatio="xMidYMid meet">
<metadata>
Created by potrace 1.14, written by Peter Selinger 2001-2017
</metadata>
<g transform="translate(0.000000,360.000000) scale(0.100000,-0.100000)"
fill="#000000" stroke="none">
<path d="M1010 3283 c-12 -14 -26 -20 -36 -16 -10 4 -20 0 -26 -10 -14 -26
-70 -22 -97 7 -18 19 -32 24 -64 22 -30 -2 -43 -7 -45 -19 -4 -18 -36 -32 -52
-22 -6 3 -13 -2 -16 -12 -17 -52 -41 -93 -55 -93 -9 0 -24 9 -34 20 -22 24
-84 23 -109 -3 -10 -9 -28 -17 -42 -17 -14 0 -24 -6 -24 -15 0 -24 -41 -95
-62 -106 -10 -5 -27 -7 -38 -4 -13 4 -20 0 -25 -15 -4 -14 -15 -20 -35 -20
-22 0 -29 -6 -35 -27 -3 -15 -19 -46 -34 -68 -31 -47 -43 -82 -30 -91 19 -11
8 -24 -21 -24 -23 0 -30 -5 -30 -19 0 -23 -29 -81 -49 -97 -20 -16 -24 -71 -6
-78 8 -3 15 -12 15 -21 0 -8 5 -15 10 -15 25 0 -2 -90 -40 -135 -28 -32 -31
-64 -9 -78 10 -6 19 -17 19 -24 0 -7 5 -13 10 -13 6 0 10 -6 10 -14 0 -8 16
-20 34 -27 l35 -13 -17 -30 c-9 -17 -22 -38 -29 -46 -22 -28 -27 -69 -9 -76 9
-3 16 -10 16 -15 0 -6 14 -23 30 -39 29 -29 56 -36 118 -32 12 0 22 -2 22 -5
0 -8 -34 -67 -51 -88 -25 -31 -30 -64 -10 -74 9 -5 23 -21 31 -35 19 -37 62
-55 118 -52 70 4 77 -1 49 -38 -39 -51 -40 -77 -6 -110 16 -16 29 -33 29 -36
0 -15 61 -32 114 -34 30 -1 57 -4 61 -7 3 -3 -5 -22 -18 -41 -32 -47 -41 -84
-22 -92 8 -3 15 -10 15 -15 0 -6 10 -21 23 -35 27 -29 94 -47 143 -39 42 7 59
-21 27 -46 -31 -25 -38 -68 -13 -81 11 -6 20 -16 20 -22 0 -13 47 -57 63 -59
11 -2 71 -5 130 -8 32 -1 37 -25 8 -40 -33 -18 -33 -61 0 -95 16 -16 29 -33
29 -38 0 -17 48 -31 118 -34 41 -2 77 -6 80 -9 3 -3 -4 -15 -15 -28 -30 -33
-35 -65 -12 -77 10 -6 19 -15 19 -21 0 -13 30 -44 55 -56 11 -6 56 -11 100
-12 44 -1 81 -4 84 -7 2 -2 -3 -12 -11 -21 -30 -35 -29 -63 5 -108 37 -50 53
-57 122 -59 l50 -1 0 -49 c0 -43 3 -51 32 -70 23 -16 29 -26 22 -33 -20 -20
-1 -32 32 -20 26 10 33 9 43 -4 9 -13 25 -16 71 -14 33 2 72 3 88 4 27 1 87
48 87 69 0 5 7 13 15 16 20 7 15 48 -9 75 -22 24 -27 22 79 25 67 3 88 13 124
63 33 46 35 71 8 101 -9 10 -17 22 -17 25 0 4 36 7 81 7 44 0 90 5 102 11 25
13 57 45 57 56 0 5 8 13 19 20 23 14 17 59 -10 76 -26 16 -24 37 4 38 84 4
133 7 139 8 12 2 68 59 68 70 0 5 7 11 15 15 18 6 11 54 -9 71 -7 6 -15 18
-19 28 -5 13 -1 17 21 18 58 3 118 6 130 8 8 0 34 22 58 47 36 39 43 51 37 73
-3 14 -12 31 -19 36 -7 6 -14 19 -16 30 -3 17 3 20 37 21 96 2 105 4 135 34
16 16 30 33 30 39 0 5 7 11 15 15 17 6 12 48 -9 76 -6 8 -17 25 -23 37 -12 20
-10 23 11 29 14 3 29 3 35 0 5 -3 32 -1 59 4 37 8 55 19 72 43 13 18 30 36 37
40 17 10 7 52 -21 90 -26 35 -14 44 50 42 55 -3 95 15 114 51 8 14 22 30 31
35 20 10 15 43 -10 74 -14 17 -24 34 -48 87 -2 4 7 6 19 6 62 -4 90 3 118 31
17 15 30 33 30 40 0 6 5 11 10 11 28 0 20 43 -19 105 -27 41 -26 51 9 65 17 7
30 17 30 22 0 5 13 22 29 37 35 34 33 53 -11 118 -31 46 -49 113 -29 113 6 0
11 7 11 15 0 9 7 18 15 21 21 8 19 60 -2 76 -20 14 -53 80 -53 103 0 10 -10
15 -30 15 -16 0 -30 5 -30 10 0 6 5 10 10 10 16 0 0 48 -30 94 -15 23 -30 53
-34 69 -5 22 -12 27 -36 27 -20 0 -31 6 -35 20 -5 15 -12 19 -25 15 -30 -9
-58 12 -80 60 -11 24 -20 49 -20 54 0 6 -11 11 -25 11 -15 0 -31 10 -41 26
-11 16 -20 22 -27 15 -5 -5 -22 -8 -36 -5 -19 4 -32 -1 -45 -15 -11 -12 -26
-21 -35 -21 -14 0 -39 42 -55 92 -3 11 -12 15 -25 11 -13 -3 -24 3 -35 20 -14
20 -24 24 -57 22 -26 -1 -47 -10 -60 -24 -24 -26 -84 -29 -97 -4 -6 9 -16 14
-25 10 -10 -4 -23 2 -34 16 -25 30 -83 30 -115 0 -15 -14 -37 -23 -56 -23 -18
0 -32 -5 -32 -10 0 -6 -11 -15 -25 -20 -14 -5 -25 -14 -25 -20 0 -17 -38 -11
-52 8 -19 26 -94 27 -111 1 -8 -13 -23 -19 -50 -19 -24 0 -40 -5 -43 -15 -3
-8 -14 -17 -24 -20 -20 -6 -34 -36 -35 -70 0 -13 -6 -19 -16 -17 -8 1 -26 -9
-39 -23 -17 -18 -34 -25 -62 -25 -27 0 -38 -4 -38 -15 0 -8 -6 -15 -14 -15
-22 0 -38 -27 -40 -70 -1 -21 -6 -43 -10 -47 -12 -12 -27 20 -21 46 7 27 -18
71 -40 71 -8 0 -15 7 -15 15 0 11 -11 15 -38 15 -28 0 -45 7 -62 25 -13 14
-31 24 -39 23 -10 -2 -16 4 -16 17 -1 35 -15 64 -36 70 -10 4 -19 13 -19 21 0
10 -12 14 -38 14 -26 0 -45 7 -56 19 -25 27 -94 25 -118 -4 -14 -17 -20 -18
-35 -7 -10 7 -26 15 -35 18 -10 4 -18 13 -18 20 0 9 -12 14 -34 14 -19 0 -45
9 -62 22 -37 30 -89 30 -114 1z m200 -294 c0 -32 68 -71 118 -69 71 3 71 3 62
-30 -8 -27 -5 -35 21 -59 16 -16 29 -33 29 -38 0 -18 57 -35 112 -35 29 0 61
-2 71 -4 19 -6 22 -35 8 -63 -11 -20 -5 -31 32 -54 22 -14 26 -22 21 -44 -6
-23 -5 -25 12 -19 42 18 55 18 67 2 10 -13 27 -15 92 -12 44 2 84 4 88 5 5 1
29 22 53 47 36 38 43 52 38 73 -4 14 -13 31 -20 37 -26 21 -14 32 36 32 53 0
110 18 110 35 0 5 13 22 29 38 26 24 29 32 21 59 -10 33 -11 33 70 30 38 -1
51 4 83 32 20 18 37 39 37 45 0 19 29 23 45 6 13 -12 35 -15 96 -14 44 1 87 5
96 8 12 5 14 3 8 -6 -6 -10 2 -12 34 -6 33 5 42 4 47 -9 5 -13 16 -15 53 -11
60 7 124 -26 129 -68 3 -27 16 -35 27 -17 9 15 45 12 51 -5 4 -9 19 -15 41
-15 24 0 34 -4 30 -12 -3 -7 -8 -20 -12 -29 -4 -12 4 -25 30 -44 26 -20 34
-33 30 -46 -7 -21 6 -24 34 -10 33 18 41 0 31 -64 -5 -33 -10 -62 -10 -65 0
-3 14 -14 30 -23 20 -12 30 -26 30 -43 0 -15 6 -24 15 -24 8 0 15 -4 15 -10 0
-5 -6 -10 -14 -10 -21 0 -37 -25 -40 -67 -2 -21 -7 -47 -10 -58 -4 -15 2 -25
26 -40 36 -22 39 -38 8 -43 -11 -2 -20 -10 -20 -18 0 -8 -7 -14 -15 -14 -23 0
-42 -40 -50 -102 -5 -46 -4 -58 7 -58 8 0 19 -5 26 -12 20 -20 -15 -48 -60
-48 -27 0 -38 -4 -38 -15 0 -8 -6 -15 -14 -15 -23 0 -36 -25 -47 -91 -12 -75
-30 -99 -74 -99 -20 0 -35 -6 -39 -15 -3 -8 -12 -15 -20 -15 -21 0 -40 -39
-38 -74 2 -15 -3 -34 -9 -42 -6 -7 -8 -18 -4 -23 3 -6 -2 -22 -12 -36 -14 -18
-27 -24 -55 -25 -27 0 -38 -4 -38 -15 0 -8 -9 -15 -20 -15 -23 0 -40 -34 -40
-79 0 -15 -12 -44 -27 -64 -23 -30 -34 -36 -65 -37 -21 0 -38 -5 -38 -10 0 -6
-11 -15 -24 -21 -29 -14 -46 -47 -39 -81 3 -16 -1 -30 -12 -39 -9 -8 -28 -24
-41 -36 -16 -15 -38 -23 -59 -23 -19 0 -35 -5 -35 -10 0 -6 -11 -16 -25 -22
-25 -11 -41 -41 -36 -67 5 -28 -10 -61 -28 -61 -10 0 -26 -9 -36 -20 -12 -13
-31 -20 -57 -20 -25 0 -38 -5 -38 -13 0 -8 -11 -19 -24 -25 -24 -10 -29 -25
-39 -102 -1 -8 -12 -15 -24 -15 -12 0 -33 -11 -46 -23 -15 -14 -36 -22 -60
-22 -25 0 -37 -5 -37 -14 0 -7 -9 -16 -20 -19 -21 -6 -40 -44 -40 -83 0 -13
-4 -24 -10 -24 -5 0 -10 15 -10 33 0 37 -24 77 -46 77 -8 0 -14 7 -14 15 0 11
-11 15 -40 15 -25 0 -42 6 -48 16 -5 9 -24 19 -43 23 -19 4 -35 13 -36 21 -10
76 -16 92 -39 102 -13 6 -24 17 -24 25 0 8 -13 13 -38 13 -26 0 -45 7 -57 20
-10 11 -24 20 -31 20 -17 0 -36 36 -31 58 5 23 -20 72 -37 72 -8 0 -16 7 -20
15 -3 10 -19 15 -42 15 -27 0 -41 7 -56 25 -11 14 -25 25 -33 25 -14 0 -29 45
-20 60 8 13 -16 60 -31 60 -7 0 -18 9 -24 20 -7 14 -21 20 -43 20 -42 0 -84
42 -92 90 -13 73 -16 81 -40 90 -14 5 -25 14 -25 20 0 5 -15 10 -33 10 -51 0
-73 35 -81 125 -3 39 -23 75 -41 75 -8 0 -15 7 -15 15 0 11 -11 15 -38 15 -51
0 -68 21 -81 99 -11 66 -24 91 -47 91 -8 0 -14 7 -14 15 0 11 -11 15 -38 15
-56 0 -87 41 -41 55 19 6 20 12 15 53 -13 92 -17 102 -42 108 -13 3 -24 12
-24 20 0 8 -9 14 -19 14 -35 0 -33 19 4 42 28 18 34 27 29 43 -3 11 -7 37 -8
57 -3 40 -20 68 -42 68 -8 0 -14 5 -14 10 0 6 9 10 20 10 16 0 19 5 14 24 -4
19 0 27 26 42 33 20 33 24 14 125 -6 29 21 48 40 29 18 -18 38 -12 31 10 -5
14 2 25 30 42 35 22 37 30 20 71 -6 14 -2 17 28 17 22 0 37 6 41 15 6 17 42
20 51 4 11 -17 30 -4 30 22 0 34 75 72 127 64 29 -5 41 -2 58 15 16 16 25 19
33 11 12 -12 47 -15 47 -3 0 4 39 5 86 2 73 -4 90 -2 107 12 14 13 24 15 38 7
11 -5 19 -14 19 -20z"/>
</g>
</svg>
